<?xml version="1.0" encoding="UTF-8" standalone="no"?>
<svg
   xmlns:dc="http://purl.org/dc/elements/1.1/"
   xmlns:cc="http://creativecommons.org/ns#"
   xmlns:rdf="http://www.w3.org/1999/02/22-rdf-syntax-ns#"
   xmlns:svg="http://www.w3.org/2000/svg"
   xmlns="http://www.w3.org/2000/svg"
   xmlns:sodipodi="http://sodipodi.sourceforge.net/DTD/sodipodi-0.dtd"
   xmlns:inkscape="http://www.inkscape.org/namespaces/inkscape"
   sodipodi:docname="dame_logo_newsoftgrey.svg"
   inkscape:version="0.92.3 (2405546, 2018-03-11)"
   id="svg8"
   version="1.1"
   viewBox="0 0 210 297"
   height="297mm"
   width="210mm">
  <defs
     id="defs2" />
  <sodipodi:namedview
     inkscape:window-maximized="1"
     inkscape:window-y="27"
     inkscape:window-x="67"
     inkscape:window-height="1025"
     inkscape:window-width="1853"
     showgrid="false"
     inkscape:document-rotation="0"
     inkscape:current-layer="layer1"
     inkscape:document-units="mm"
     inkscape:cy="627.77804"
     inkscape:cx="639.98957"
     inkscape:zoom="0.49497475"
     inkscape:pageshadow="2"
     inkscape:pageopacity="0.0"
     borderopacity="1.0"
     bordercolor="#666666"
     pagecolor="#ffffff"
     id="base" />
  <metadata
     id="metadata5">
    <rdf:RDF>
      <cc:Work
         rdf:about="">
        <dc:format>image/svg+xml</dc:format>
        <dc:type
           rdf:resource="http://purl.org/dc/dcmitype/StillImage" />
        <dc:title></dc:title>
      </cc:Work>
    </rdf:RDF>
  </metadata>
  <g
     id="layer1"
     inkscape:groupmode="layer"
     inkscape:label="Calque 1">
    <path
       d="m 105.32543,64.126772 c -4.91659,0 -8.840793,0.10954 -9.230943,0.25787 -0.87164,0.33141 -0.90421,1.3809 -0.0941,3.04839 0.52448,1.07955 0.54848,1.29213 0.23151,2.05776 -0.60912,1.47134 -0.66005,2.54484 -0.14729,3.11144 0.39253,0.43377 0.44265,0.84802 0.31885,2.6541 -0.0807,1.17724 -0.1999,2.19409 -0.26509,2.25929 -0.0652,0.0651 -0.70101,-0.13148 -1.41285,-0.43666 -4.26161,-1.82713 -9.70724,-1.85279 -13.9795,-0.0661 -3.73163,1.56054 -6.75431,4.33637 -9.01752,8.28063 -1.88752,3.28948 -4.79907,5.69532 -8.32769,6.88175 -1.30521,0.43886 -2.70838,0.62662 -5.82083,0.77877 -3.16336,0.15464 -4.49424,0.3355 -5.82083,0.79065 -7.77547,2.66781 -12.43542,9.390618 -12.43542,17.940498 0,5.77145 -2.57942,10.08411 -7.90234,13.2116 -5.5836,3.28066 -8.65724,7.64453 -9.58185,13.60382 -0.5825,3.75425 0.15049,7.20289 2.50372,11.77757 1.69474,3.29458 2.28288,5.29848 2.27687,7.76542 -0.006,2.53533 -0.65045,4.86296 -2.05258,7.41144 -2.51991,4.58006 -3.05874,6.36846 -3.07114,10.19369 -0.0107,3.29101 0.35957,4.88525 1.86551,8.03207 0.95864,2.00315 1.5729,2.86664 3.21583,4.5222 1.11691,1.12549 2.80426,2.49348 3.75015,3.03961 6.05951,3.49859 8.42256,7.70157 8.43256,14.9996 0.004,2.88192 0.49101,5.1193 1.64229,7.54218 2.13255,4.48796 5.7244,7.64962 10.53114,9.26971 1.58392,0.53386 2.8404,0.72594 5.86115,0.89607 4.13311,0.23277 6.03965,0.72515 8.58602,2.21744 1.7635,1.03347 4.11057,3.50438 5.1103,5.38003 2.12042,3.97834 4.61679,6.44513 8.38758,8.28787 2.90552,1.41989 5.402,1.9163 8.73125,1.7353 3.23339,-0.17579 4.96165,-0.70083 8.73125,-2.65256 2.83713,-1.46894 5.461743,-2.26771 7.485853,-2.2784 2.21253,-0.0117 4.97052,0.845 8.16179,2.53574 1.79031,0.94853 4.07411,1.92802 5.15938,2.21229 5.26206,1.37821 10.87207,0.19441 15.47397,-3.26494 1.9259,-1.44769 3.04498,-2.76611 4.75115,-5.5981 3.20034,-5.31217 7.55586,-7.7959 13.67152,-7.7959 3.39492,0 6.18091,-0.58705 8.79634,-1.85364 4.39925,-2.13042 7.57155,-5.80336 9.25372,-10.71407 0.27403,-0.80003 0.5493,-2.83932 0.69607,-5.15938 0.13345,-2.11005 0.43026,-4.49129 0.65992,-5.29166 1.05889,-3.69061 3.92144,-7.19724 7.42072,-9.0904 3.70138,-2.0025 6.02149,-4.37469 7.7675,-7.94216 1.39671,-2.85379 1.85103,-4.78128 1.85103,-7.85171 0,-3.41978 -0.68382,-5.98029 -2.50423,-9.37411 -1.74977,-3.26211 -2.25872,-5.08013 -2.25671,-8.06462 0.002,-2.98017 0.21807,-3.70919 2.39313,-8.08013 2.18151,-4.3839 2.63239,-5.9959 2.63239,-9.40614 0,-6.28865 -2.98699,-11.78779 -8.20208,-15.10089 -3.59606,-2.28456 -4.49342,-2.99347 -5.65441,-4.46484 -2.4247,-3.07286 -3.05711,-5.02873 -3.33574,-10.31875 -0.1574,-2.98859 -0.37237,-4.60344 -0.79322,-5.95313 -1.35789,-4.35485 -4.85301,-8.500448 -8.7948,-10.432438 -2.89944,-1.42108 -4.73467,-1.84768 -9.1209,-2.11976 -4.12504,-0.25588 -5.9354,-0.76116 -8.26617,-2.30684 -2.00972,-1.33276 -3.71213,-3.19136 -4.88807,-5.33662 -2.68642,-4.9008 -6.39847,-7.93693 -11.41119,-9.3338 -3.7138,-1.03491 -8.21862,-0.71511 -11.71609,0.83199 -0.84611,0.37428 -1.25447,0.44348 -1.38388,0.2341 -0.10096,-0.1634 -0.26331,-1.17633 -0.36071,-2.25103 -0.15994,-1.7649 -0.11967,-2.03189 0.41601,-2.75642 0.59288,-0.80195 0.59264,-0.80252 0.10747,-2.22984 -0.5126,-1.50809 -0.48368,-1.89746 0.29147,-3.94136 l 0.48419,-1.27744 -0.62424,-0.5085 c -0.5875,-0.47839 -1.13315,-0.5085 -9.17723,-0.5085 z m -17.714673,14.82597 c 1.60594,0 4.45,0.67378 6.24768,1.48053 1.60915,0.72214 1.6097,0.72282 1.45571,1.68569 -0.24553,1.53555 -1.44306,4.9983 -2.42826,7.02282 -2.52754,5.19398 -6.25361,9.50028 -16.93643,19.572448 -11.24299,10.60031 -14.39886,14.08961 -18.78232,20.76824 -1.95813,2.98341 -4.87879,8.10223 -4.87879,8.5509 0,0.097 23.82333,0.17674 52.940463,0.17674 h 52.94042 l -1.35649,-2.53887 c -2.84612,-5.32668 -6.53899,-10.62216 -10.44742,-14.98151 -2.51137,-2.80106 -8.17049,-8.39842 -14.19759,-14.04255 -11.00953,-10.309948 -14.7365,-15.418908 -16.86875,-23.124688 -0.60576,-2.18925 -0.65984,-2.09216 1.71413,-3.08612 6.98391,-2.92411 14.49866,-0.18558 18.48361,6.73551 2.30822,4.00897 4.68799,6.28999 8.40311,8.05429 2.38519,1.13273 4.95985,1.69829 7.75716,1.70429 5.65425,0.0122 10.12156,2.18668 12.91807,6.288498 1.88121,2.75933 2.32225,4.2959 2.56262,8.92969 0.22066,4.25411 0.59007,6.0435 1.78853,8.66149 1.58314,3.45839 3.92666,5.89231 8.01293,8.323 2.41726,1.43788 4.07231,3.0482 5.38626,5.24051 1.10495,1.84366 1.99057,4.50477 1.99057,5.98155 v 1.03094 l -79.49798,-0.0103 c -54.669003,-0.007 -79.550713,-0.0963 -79.667503,-0.28525 -0.24884,-0.40264 0.12795,-3.01799 0.69969,-4.85552 0.6286,-2.0203 2.27261,-4.53746 3.94602,-6.042 0.71351,-0.64152 2.3829,-1.80391 3.70986,-2.58279 6.01289,-3.5294 9.25729,-9.20051 9.25729,-16.18093 0,-7.0063 3.91735,-12.517118 10.31875,-14.516418 1.2309,-0.38442 2.66055,-0.56356 5.02762,-0.63046 4.0373,-0.11403 5.59469,-0.43506 8.33384,-1.71669 3.82403,-1.78922 6.11833,-3.94006 8.51628,-7.98504 2.7387,-4.61971 7.72827,-7.62796 12.65092,-7.62796 z m -12.56824,38.832258 3.50573,0.12195 c 1.92815,0.0668 3.94369,0.26031 4.47881,0.42995 1.7366,0.55054 3.42363,1.91265 4.29639,3.46904 0.7335,1.30805 0.81595,1.68264 0.81595,3.70417 0,2.0283 -0.0803,2.39085 -0.82114,3.69693 -0.88786,1.56535 -2.61951,2.96062 -4.29016,3.45664 -0.53576,0.15907 -2.5517,0.35793 -4.47985,0.44183 l -3.50573,0.15244 v -7.73647 z m 59.795833,0.0403 v 1.3286 1.32911 h -2.88869 c -1.58882,0 -3.04734,0.0606 -3.24115,0.13488 -0.24511,0.094 -0.34538,0.63791 -0.32919,1.78594 l 0.0238,1.65106 2.75487,0.13229 2.75487,0.13229 0.0305,1.12448 0.031,1.12448 h -2.74299 -2.74299 v 1.43351 c 0,0.78846 -0.0719,1.6219 -0.16018,1.85208 -0.14139,0.36841 0.25117,0.41858 3.28145,0.41858 h 3.44268 l 0.0915,1.34514 c 0.0504,0.7398 0.042,1.3946 -0.0186,1.4552 -0.0606,0.0606 -2.29677,0.11007 -4.96919,0.11007 -3.67223,0 -4.89029,-0.0816 -4.98729,-0.33434 -0.0706,-0.18397 -0.0967,-3.60702 -0.0579,-7.60677 l 0.0703,-7.27243 4.82865,-0.0724 z m -28.30626,0.0119 c 0.0748,-10e-6 1.73204,1.59935 3.68297,3.55431 l 3.54706,3.55482 3.43339,-3.55482 c 1.88849,-1.95496 3.53711,-3.55431 3.66334,-3.55431 0.12618,0 0.19778,3.42304 0.15918,7.60677 l -0.0703,7.60677 -1.52136,0.0796 -1.52135,0.0791 v -4.24677 c 0,-2.33559 -0.0772,-4.24625 -0.17156,-4.24625 -0.0944,0 -1.04703,0.92274 -2.11716,2.05052 l -1.94615,2.05052 -1.92651,-2.05052 c -1.05979,-1.12778 -2.01218,-2.05052 -2.11614,-2.05052 -0.1039,0 -0.18915,1.90499 -0.18915,4.23333 l 5.3e-4,4.23333 h -1.45521 c -0.80036,0 -1.47264,-0.0893 -1.49344,-0.19843 -0.11266,-0.59163 -0.0724,-15.14738 0.0419,-15.1474 z m -10.039193,0.0155 c 0.0831,-0.008 0.90932,1.56259 1.83608,3.49074 4.591103,9.55194 5.553123,11.58018 5.553123,11.70471 0,0.0743 -0.74414,0.13274 -1.65364,0.13074 l -1.65365,-0.005 -0.598413,-1.38441 -0.59891,-1.38441 -2.84067,0.0419 -2.84117,0.0419 -0.61236,1.3472 v 5.2e-4 l -0.61288,1.3472 h -1.52601 c -0.83926,0 -1.58247,-0.0565 -1.65158,-0.12557 -0.0691,-0.0691 0.74488,-1.94432 1.80869,-4.16719 1.06381,-2.22287 2.67819,-5.61239 3.58738,-7.53236 0.90916,-1.91997 1.7209,-3.49773 1.80401,-3.50572 z m -18.14309,2.76262 -0.0718,4.82864 -0.0724,4.82865 h 1.60404 c 2.64342,0 4.4297,-1.23751 5.03586,-3.48868 0.4277,-1.58828 0.0744,-3.19281 -0.97149,-4.41472 -1.0218,-1.19373 -2.00822,-1.60228 -4.08504,-1.69188 z m 18.14878,3.31039 c -0.15716,0.003 -1.6224,3.65957 -1.61542,4.03179 0.002,0.10914 0.78711,0.19844 1.74512,0.19844 0.95803,0 1.70214,-0.0908 1.65364,-0.20205 -0.0485,-0.11126 -0.43413,-1.06377 -0.8573,-2.11667 -0.42317,-1.05291 -0.83995,-1.91351 -0.92604,-1.91151 z m 8.515753,20.6344 h 79.09544 l -0.17881,0.99218 c -0.0986,0.5457 -0.58875,1.76609 -1.08934,2.71198 -2.92071,5.51903 -3.54396,7.496 -3.54396,11.2448 0,2.97169 0.5934,5.44788 1.94561,8.12043 0.63989,1.26471 1.09686,2.36599 1.01544,2.4474 -0.27066,0.27068 -155.857623,0.16401 -156.025103,-0.10697 -0.0865,-0.13999 0.38137,-1.18179 1.03973,-2.31511 1.44796,-2.49256 2.14971,-4.41709 2.55127,-6.99699 0.59312,-3.81072 -0.3374,-8.50667 -2.34095,-11.8153 -1.0636,-1.75643 -1.95755,-3.89015 -1.72649,-4.12119 0.0886,-0.0887 35.7545,-0.16123 79.257163,-0.16123 z m -1.5198,2.64583 c -0.0777,0 -0.14107,4.40531 -0.14107,9.78958 v 9.78959 h 2.6453 2.64636 v -4.23334 c 0,-2.32833 0.0686,-4.23333 0.15246,-4.23333 0.0839,0 2.49486,1.96263 5.35781,4.36149 2.86292,2.39885 5.29465,4.36363 5.4038,4.36563 0.10914,0.002 0.19843,-4.40118 0.19843,-9.78545 v -9.78959 h -2.64636 -2.6453 v 4.23334 c 0,2.32834 -0.10018,4.23333 -0.2222,4.23333 -0.12205,0 -2.55895,-1.96453 -5.41518,-4.36562 -2.85625,-2.40109 -5.25634,-4.36563 -5.33405,-4.36563 z m 21.77852,0.0439 c -0.12322,-0.0485 -0.22429,4.32703 -0.22429,9.72343 v 9.81181 h 2.64583 2.64637 v -4.23334 c 0,-2.32833 0.0893,-4.22899 0.19843,-4.223 0.10914,0.006 2.52016,1.96811 5.35782,4.36046 2.83765,2.39235 5.24814,4.35178 5.35728,4.35478 0.10914,0.003 0.19897,-4.39963 0.19897,-9.7839 v -9.78959 h -2.64637 -2.64583 v 4.25504 c 0,2.64287 -0.0974,4.2225 -0.25733,4.16771 -0.14164,-0.0485 -2.5409,-1.99337 -5.33199,-4.3217 -2.79109,-2.32834 -5.17565,-4.27321 -5.29889,-4.3217 z m -35.015443,0.002 c -0.11879,-0.11879 -3.1329,5.95555 -7.82174,15.76337 l -1.80248,3.77032 h 2.77607 2.77553 l 0.5266,-1.19063 0.52657,-1.19062 2.96416,0.001 2.96468,0.001 0.48887,1.1896 0.48937,1.18959 h 2.75177 c 1.51355,0 2.75175,-0.0465 2.75175,-0.10335 0,-0.15879 -9.24261,-19.2818 -9.39115,-19.43034 z m -36.11665,0.2191 v 7.12463 c 0,8.30095 0.0608,8.09298 -2.30632,7.89668 l -1.41748,-0.11731 0.076,2.25982 c 0.0724,2.15748 0.10552,2.26877 0.73689,2.44377 2.13942,0.59297 5.36051,-0.0202 6.67248,-1.2702 1.56786,-1.49382 1.62776,-1.85646 1.73632,-10.46603 l 0.0998,-7.87136 h -2.79881 z m 10.84738,0 v 9.6573 l 5.3e-4,9.65729 h 6.48229 6.4823 v -2.24896 -2.24896 h -3.66025 c -2.01303,0 -3.7097,-0.0498 -3.77031,-0.11007 -0.0606,-0.0603 -0.0695,-0.7747 -0.0196,-1.5875 l 0.0904,-1.47743 h 3.01842 3.01842 v -2.11667 -2.11666 h -2.99879 c -1.64922,0 -3.04996,-0.0512 -3.11248,-0.11369 -0.0624,-0.0625 -0.0707,-0.6547 -0.0181,-1.31568 l 0.0956,-1.20148 3.46337,-0.0739 3.46281,-0.0734 0.0165,-2.3151 0.0165,-2.31511 h -6.28332 z m 81.756253,0 v 9.6573 l 5.3e-4,9.65729 h 6.48229 6.4823 v -2.24896 -2.24896 h -3.70417 -3.70417 v -1.5875 -1.5875 h 3.04271 3.04271 v -2.11667 -2.11666 h -3.04271 -3.04271 l -5.3e-4,-1.38907 v -1.38906 h 3.50573 3.50626 l 0.0765,-2.3151 0.076,-2.31511 H 153.105 Z m -56.603763,9.96684 c 0.20878,-1.3e-4 1.30638,2.57183 1.30638,3.09076 0,0.0942 -0.60817,0.17157 -1.35134,0.17157 -0.97477,0 -1.31447,-0.0922 -1.21957,-0.33073 0.0724,-0.1819 0.34073,-0.8665 0.59688,-1.52135 0.25611,-0.65484 0.54903,-1.2858 0.65058,-1.40199 0.005,-0.006 0.0103,-0.008 0.0171,-0.008 z m -65.08028,15.96233 h 79.345053 79.34502 l 0.19119,0.59531 c 0.10514,0.32742 0.18743,1.62413 0.18243,2.88148 -0.0153,4.00251 -1.54149,7.50271 -4.50411,10.32857 -0.85019,0.81094 -2.07605,1.74164 -2.72439,2.06861 -6.33343,3.19405 -10.29115,9.35957 -10.30324,16.05121 -0.009,4.73274 -1.28252,8.34018 -3.98013,11.27115 -3.05366,3.31784 -5.74299,4.40127 -11.68043,4.70566 -3.54806,0.18188 -4.46979,0.3236 -6.38101,0.98237 -4.23362,1.45926 -7.51909,4.22962 -10.15648,8.56381 -2.35082,3.86326 -5.8561,6.55592 -9.55704,7.34168 -2.98664,0.6341 -6.89081,0.21489 -9.2506,-0.99322 -0.54388,-0.27845 -2.04041,-1.04735 -3.32589,-1.70844 -2.83684,-1.45882 -5.18869,-2.02777 -8.37883,-2.02777 -3.39468,0 -5.582103,0.57655 -9.136913,2.40811 -3.58113,1.84517 -5.32473,2.35439 -8.061,2.35439 -3.83897,0 -7.0212,-1.27418 -9.86658,-3.95067 -0.99502,-0.93599 -2.11661,-2.24566 -2.49235,-2.91041 -2.39038,-4.22925 -4.29456,-6.35609 -7.33081,-8.18762 -2.93915,-1.77294 -6.57775,-2.67449 -10.82259,-2.68149 -4.2988,-0.007 -8.31403,-2.01787 -11.04998,-5.53299 -2.20856,-2.83753 -3.1396,-5.94144 -3.14762,-10.49497 -0.0114,-6.60893 -3.14335,-12.10375 -8.8682,-15.55822 -2.94343,-1.77614 -4.16888,-2.83296 -5.58413,-4.81625 -1.95496,-2.73962 -3.13555,-7.09661 -2.63965,-9.73997 z m 22.95882,2.91042 0.17362,0.59531 c 1.00335,3.44639 3.64903,9.27846 5.58364,12.30881 3.83058,6.00013 9.01207,11.23814 15.04611,15.20941 6.61971,4.35673 14.81817,6.84929 26.3281,8.00468 4.73202,0.47524 14.700923,0.47243 19.735253,-0.005 15.85029,-1.50368 25.75078,-5.66077 34.64232,-14.54589 5.52682,-5.52281 9.89994,-12.62138 12.06439,-19.58278 0.27146,-0.87313 0.49509,-1.6768 0.49609,-1.78594 0.001,-0.10914 -25.66418,-0.19843 -57.03374,-0.19843 z m 57.180483,4.23333 c 0.96031,0 1.09998,0.0924 1.5875,1.048 0.29401,0.57629 0.53486,1.17159 0.53486,1.32292 0,0.15131 -0.32793,0.27058 -0.72814,0.26458 -0.54827,-0.008 -0.93951,-0.29821 -1.5875,-1.17926 -0.47291,-0.64305 -0.85936,-1.2342 -0.85936,-1.3131 0,-0.0789 0.47352,-0.14314 1.05264,-0.14314 z m 22.89215,3.16208 2.37556,2.38745 c 1.30667,1.31323 2.46753,2.38797 2.57969,2.38797 0.11215,0 0.20412,-1.07157 0.20412,-2.38125 v -2.38125 h 0.92604 0.92605 v 4.52324 4.52375 l -2.57969,-2.38745 -2.57969,-2.38745 -0.0765,2.36161 -0.076,2.36213 h -0.88778 c -0.48829,0 -0.93039,-0.14883 -0.98238,-0.33073 -0.052,-0.18189 -0.0346,-2.20913 0.0382,-4.50463 z m -21.62141,0.0129 c 0.20042,0 4.29977,8.39846 4.29379,8.7974 -0.002,0.10914 -0.41632,0.19843 -0.92191,0.19843 -0.75377,0 -0.99357,-0.14287 -1.33017,-0.79375 -0.38756,-0.74945 -0.49956,-0.79375 -2.01382,-0.79375 -1.5389,0 -1.61573,0.0321 -1.90323,0.79375 -0.26014,0.68915 -0.43167,0.79375 -1.30019,0.79375 -0.55017,0 -0.99994,-0.0553 -0.99994,-0.12299 0,-0.0677 0.89297,-1.98902 1.98438,-4.26899 1.0914,-2.27997 1.98437,-4.24826 1.98437,-4.37441 0,-0.12615 0.093,-0.22944 0.20672,-0.22944 z m 14.74224,0 c 0.46056,0 0.90493,0.0673 0.98703,0.14934 0.0821,0.0821 -0.7456,2.01686 -1.83917,4.29948 -1.09358,2.28263 -2.08264,4.25252 -2.19779,4.37752 -0.17433,0.18918 -4.15917,-7.60371 -4.31035,-8.42947 -0.0266,-0.14552 0.40621,-0.26458 0.9617,-0.26458 h 1.00976 l 1.10691,2.48047 1.10638,2.48047 1.16946,-2.54662 c 1.11845,-2.4366 1.20486,-2.54661 2.00607,-2.54661 z m -34.529683,0.009 c 0.11779,0.008 3.93226,7.94688 4.19044,8.72144 0.0663,0.19875 -0.24524,0.27244 -0.91829,0.21704 -0.80841,-0.0665 -1.08977,-0.23364 -1.36528,-0.81132 -0.32088,-0.6727 -0.46492,-0.72761 -1.91307,-0.72761 -1.47269,0 -1.59117,0.0474 -1.97715,0.79375 -0.33903,0.65565 -0.5734,0.79375 -1.34874,0.79375 -0.65381,0 -0.91278,-0.10831 -0.85317,-0.35708 0.14393,-0.60095 4.04243,-8.63996 4.18526,-8.62997 z m 7.82277,0.015 c 2.14426,0.0147 3.40109,0.57077 3.95687,1.74201 0.57148,1.20426 0.33478,2.53103 -0.57981,3.25045 l -0.68831,0.54105 0.83042,1.55805 c 0.45665,0.85676 0.82992,1.63718 0.82992,1.73478 0,0.0973 -0.44646,0.1408 -0.99219,0.0956 -0.91207,-0.0755 -1.05574,-0.20517 -1.78541,-1.60301 -0.6079,-1.16454 -0.93366,-1.52082 -1.38959,-1.52135 -0.55128,-6.9e-4 -0.59531,0.11685 -0.59531,1.58698 v 1.5875 h -0.92551 -0.92604 v -4.46071 -4.46071 l 1.82417,-0.046 c 0.15089,-0.004 0.29786,-0.006 0.44079,-0.005 z m -19.33112,0.10852 2.15233,0.0264 c 1.772,0.0217 2.29786,0.13012 2.97657,0.6134 0.7044,0.50157 0.82423,0.7527 0.82423,1.72702 0,0.66708 -0.15693,1.27111 -0.37878,1.45521 -0.32509,0.26981 -0.30718,0.38632 0.12557,0.81907 1.18552,1.18552 0.80682,2.95344 -0.80513,3.75895 -0.64277,0.32121 -1.55453,0.46276 -2.98275,0.46302 l -2.05671,5.1e-4 0.0723,-4.43177 z m 48.419283,0 h 0.92604 0.92604 l 0.0723,4.43177 0.0724,4.43177 h -0.90381 c -0.5207,0 -0.96285,-0.15334 -1.04283,-0.36173 -0.0764,-0.19901 -0.11898,-2.19331 -0.0946,-4.43177 z m -46.075233,1.58078 c -0.53893,-0.0185 -0.62426,0.25137 -0.62426,1.08056 0,0.85782 0.052,0.91054 0.89403,0.91054 1.70191,0 2.05946,-1.55428 0.43408,-1.88671 -0.29417,-0.0602 -0.5242,-0.0982 -0.70385,-0.10439 z m 16.57366,0.13901 v 1.19063 1.19062 h 1.00563 c 1.12995,0 1.6402,-0.37049 1.6402,-1.19062 0,-0.82012 -0.51025,-1.19063 -1.6402,-1.19063 z m 12.556363,2.01435 c -0.10462,-0.0139 -0.26982,0.23533 -0.47956,0.72967 -0.2391,0.56348 -0.4346,1.12902 -0.4346,1.25677 0,0.12775 0.41018,0.23255 0.91209,0.23255 h 0.91261 l -0.34883,-0.8599 c -0.19196,-0.47295 -0.40709,-1.03849 -0.478,-1.25677 -0.0207,-0.0638 -0.0488,-0.0977 -0.0837,-0.10232 z m -19.975013,0.10232 c -0.22207,0 -0.7829,1.24096 -0.7829,1.7322 0,0.25074 0.27601,0.38447 0.79375,0.38447 0.43656,0 0.79375,-0.081 0.79375,-0.17984 0,-0.38468 -0.64485,-1.93683 -0.8046,-1.93683 z m -8.65891,1.09089 c -0.0883,9e-4 -0.17952,0.006 -0.27337,0.017 -0.63587,0.0734 -0.72343,0.20644 -0.79582,1.20716 -0.0813,1.12348 -0.0807,1.12448 0.84077,1.12448 0.50731,0 1.10977,-0.18732 1.33842,-0.41599 0.88556,-0.88556 0.21455,-1.9463 -1.11,-1.9327 z m -2.17094,9.39167 c 0.2463,0.007 0.98957,0.2356 1.79163,0.55708 1.20195,0.48173 1.64285,0.78815 1.58234,1.09812 -0.0537,0.27496 -0.35171,0.42943 -0.82786,0.42943 -0.65944,0 -0.82018,0.181 -1.40922,1.5875 -0.80391,1.91956 -0.89024,2.02015 -1.4609,1.69809 -0.41105,-0.232 -0.38314,-0.40809 0.33073,-2.08566 0.42884,-1.00776 0.77928,-1.8844 0.77928,-1.9482 0,-0.0638 -0.23812,-0.17815 -0.52917,-0.25425 -0.51503,-0.13469 -0.72908,-0.82837 -0.33073,-1.07177 0.0137,-0.008 0.0387,-0.0114 0.0739,-0.0103 z m 59.218623,0.22221 c 0.37978,-0.0116 0.56946,0.12346 0.56946,0.40566 0,0.15369 -0.29416,0.39144 -0.6537,0.52814 l -0.65371,0.24856 0.80822,1.89859 c 0.64516,1.51612 0.73687,1.94332 0.45527,2.12184 -0.59999,0.38035 -0.68609,0.28504 -1.45624,-1.61024 -0.70572,-1.73673 -0.79407,-1.83864 -1.54254,-1.78594 -1.36134,0.0959 -0.93412,-0.64863 0.76379,-1.33118 0.75986,-0.30549 1.32967,-0.4638 1.70945,-0.47543 z m -4.69119,1.73478 c 0.37242,-0.0163 0.53191,0.15638 0.92191,0.60978 0.69652,0.80976 0.80597,1.49002 0.31885,1.97714 -0.24463,0.24462 -0.15521,0.48312 0.39687,1.05937 0.85233,0.88964 0.8713,1.00883 0.18603,1.18804 -0.36478,0.0954 -0.73043,-0.10419 -1.18803,-0.64802 -0.79677,-0.94688 -1.24722,-0.79619 -0.92967,0.31109 0.18699,0.65197 0.13611,0.83944 -0.28834,1.0666 -0.38235,0.20458 -0.54216,0.18696 -0.62116,-0.0672 -0.0585,-0.18817 -0.41336,-1.28879 -0.78909,-2.44584 -0.37574,-1.15705 -0.59423,-2.19186 -0.48525,-2.2996 0.10898,-0.10775 0.77576,-0.34985 1.48156,-0.53795 0.47294,-0.12605 0.77288,-0.20365 0.99632,-0.21343 z m -48.873493,0.11627 c 0.22164,0.005 0.44632,0.04 0.66971,0.10697 2.18448,0.65449 2.52992,3.71904 0.55089,4.88808 -1.32689,0.78381 -2.75897,0.42781 -3.53002,-0.87747 -0.54784,-0.92753 -0.55877,-1.65665 -0.0403,-2.65927 0.48659,-0.94096 1.38925,-1.48054 2.34974,-1.45831 z m 44.953843,1.01544 c 0.25461,0.005 0.38071,0.0763 0.46612,0.21446 0.30805,0.49844 0.10734,0.68409 -0.95652,0.88367 -0.69826,0.13099 -0.92218,0.29447 -0.8563,0.62528 0.0692,0.34708 0.317,0.42752 1.09916,0.35812 0.85344,-0.0757 0.99507,-0.0159 0.91779,0.38551 -0.0503,0.26116 -0.38833,0.54475 -0.7514,0.63045 -0.42545,0.10044 -0.66042,0.33994 -0.66042,0.67334 0,0.54454 0.0265,0.54933 1.38906,0.26045 0.74115,-0.15713 0.8599,-0.11028 0.8599,0.33952 0,0.28703 -0.16309,0.58434 -0.36275,0.66094 -0.19968,0.0766 -0.89651,0.21949 -1.54876,0.31729 l -1.18597,0.17777 -0.56793,-2.26343 c -0.31223,-1.245 -0.56793,-2.37875 -0.56793,-2.51922 0,-0.14047 0.67051,-0.39473 1.48985,-0.56483 0.59846,-0.12422 0.98149,-0.18452 1.2361,-0.17932 z m 3.59098,0.0233 c -0.13779,0.009 -0.29517,0.0419 -0.4382,0.0966 -0.41056,0.15701 -0.47284,0.32441 -0.29716,0.79426 0.24448,0.65367 0.27268,0.668 0.87956,0.43512 0.45106,-0.17309 0.57134,-1.03658 0.17827,-1.27951 -0.066,-0.0408 -0.18465,-0.0557 -0.32247,-0.0465 z m -48.639913,0.15916 c -0.44167,-0.0151 -0.86577,0.15453 -1.05937,0.51625 -0.45312,0.84669 -0.31895,1.80754 0.31419,2.25103 0.77738,0.54448 0.91004,0.52606 1.67328,-0.2372 0.75679,-0.75677 0.80227,-1.13112 0.2372,-1.93787 -0.26434,-0.37742 -0.72364,-0.57706 -1.1653,-0.59221 z m 4.52273,0.005 c 0.51411,0 0.53941,0.0908 0.34518,1.25677 -0.33259,1.99647 -0.28467,2.75509 0.19327,3.0608 0.71081,0.45466 1.18857,-0.18769 1.54514,-2.07739 0.25715,-1.36298 0.42088,-1.71101 0.80614,-1.71101 0.26598,0 0.5393,0.0901 0.60722,0.19999 0.21425,0.34671 -0.67104,3.87986 -1.0935,4.36407 -0.24789,0.28415 -0.77121,0.45976 -1.35496,0.45475 -1.87153,-0.0158 -2.50415,-0.92654 -2.12026,-3.052 0.42264,-2.34026 0.48924,-2.49598 1.07177,-2.49598 z m 35.381303,0.80667 c 0.56118,0.004 0.91041,0.16434 1.21904,0.5054 0.31015,0.34222 0.41431,0.73701 0.308,1.16065 -0.10308,0.41067 -0.0193,0.75954 0.23305,0.96893 0.53962,0.44785 0.49548,1.41212 -0.0889,1.94097 -0.26577,0.2405 -1.03446,0.54021 -1.70844,0.66611 l -1.22523,0.22893 -0.26511,-1.35289 c -0.14579,-0.74404 -0.34052,-1.90159 -0.43252,-2.57194 -0.16573,-1.20702 -0.15925,-1.22048 0.68369,-1.38906 0.52644,-0.1053 0.93969,-0.1594 1.2764,-0.1571 z m -30.585223,0.18552 c 0.10792,0.0363 0.61835,0.0661 1.13429,0.0661 0.6432,0 1.14221,0.20428 1.5875,0.64957 0.79365,0.79364 0.82706,1.55369 0.10078,2.27996 -0.46974,0.46974 -0.50768,0.66539 -0.26458,1.36271 0.15608,0.44772 0.28368,0.9149 0.28368,1.0387 0,0.27813 -0.63301,0.29696 -0.90484,0.0269 -0.10986,-0.10914 -0.36214,-0.58538 -0.56018,-1.05833 -0.44011,-1.05119 -0.85254,-1.10775 -0.96478,-0.1323 -0.1,0.86878 -1.28921,1.26275 -1.2542,0.41548 0.0539,-1.3055 0.67019,-4.70681 0.84233,-4.64881 z m 25.555023,0.37517 c 0.23868,0.0153 0.3172,0.41022 0.43307,1.47691 0.30194,2.77981 0.30609,2.78905 1.33945,2.5952 0.78705,-0.14767 0.91413,-0.10049 0.91413,0.34106 0,0.28206 -0.18788,0.58504 -0.41804,0.67334 -0.5915,0.22701 -2.43832,0.19995 -2.57506,-0.0377 -0.0628,-0.10914 -0.19867,-1.1974 -0.30178,-2.41846 -0.14526,-1.72021 -0.10803,-2.27028 0.16486,-2.44326 0.19339,-0.1226 0.33491,-0.19403 0.44337,-0.18707 z m -20.003933,0.25993 c 0.13517,-0.002 0.2827,0.003 0.44286,0.0134 1.01277,0.0658 1.227,0.17368 1.295,0.65112 0.0748,0.52508 -0.007,0.56055 -0.99219,0.4284 -0.88252,-0.11837 -1.07384,-0.0656 -1.07384,0.29611 0,0.242 0.20839,0.51316 0.46302,0.60306 0.72113,0.2545 1.65365,1.19024 1.65365,1.65933 0,0.23329 -0.18531,0.68892 -0.41185,1.01234 -0.73409,1.04807 -3.39982,0.65945 -3.10885,-0.4532 0.11128,-0.42552 0.24571,-0.47071 0.78652,-0.2651 1.6092,0.61182 1.97086,-0.16318 0.48522,-1.03973 -0.92466,-0.54544 -1.03679,-0.75736 -0.93067,-1.75493 0.0875,-0.82242 0.44487,-1.14008 1.39113,-1.15084 z m 15.970593,0.0548 c 0.60849,0.0249 1.19433,0.34755 1.75906,0.96738 1.16795,1.28186 0.84973,3.35004 -0.63355,4.11707 -1.53635,0.79448 -3.22212,0.10834 -3.70726,-1.50947 -0.38785,-1.29327 -0.0147,-2.32321 1.12035,-3.09335 0.50144,-0.34024 0.98814,-0.50102 1.4614,-0.48163 z m 8.89299,0.1633 c -0.29453,-0.003 -0.5855,0.18919 -0.5855,0.53588 0,0.33674 0.17659,0.52917 0.48525,0.52917 0.62423,0 0.8373,-0.22236 0.65889,-0.6873 -0.0983,-0.25606 -0.32954,-0.37571 -0.55864,-0.37775 z m -13.57434,0.0667 c 0.75647,0.0184 1.34718,0.31207 1.34718,0.74828 0,0.39824 -0.19159,0.47901 -1.05834,0.44441 -1.23475,-0.0492 -1.91823,0.48551 -1.91823,1.5012 0,1.11231 0.54407,1.53686 1.83711,1.43403 1.015,-0.0807 1.13946,-0.0292 1.13946,0.47335 0,0.42017 -0.21098,0.60651 -0.82683,0.72967 -0.978,0.19557 -1.00502,0.19426 -1.68671,-0.0848 -0.87289,-0.35727 -1.4918,-1.23469 -1.63762,-2.32182 -0.11274,-0.84056 -0.0115,-1.17495 0.55915,-1.85312 0.38296,-0.45514 1.03505,-0.90232 1.44899,-0.99322 0.27315,-0.06 0.54366,-0.0842 0.79584,-0.078 z m -15.684323,0.23565 c -0.34597,-0.0174 -0.431,0.12736 -0.431,0.61185 0,0.55369 0.12636,0.68006 0.68008,0.68006 0.5537,0 0.66421,-0.11048 0.59531,-0.59532 -0.0543,-0.38258 -0.29749,-0.62576 -0.68008,-0.68006 -0.0606,-0.009 -0.11491,-0.014 -0.16431,-0.0165 z m 20.160513,0.76222 c -0.36946,-0.0135 -0.72887,0.0876 -0.95911,0.31781 -0.54459,0.5446 -0.38537,1.98662 0.27027,2.44585 0.77737,0.54449 0.91003,0.52555 1.67328,-0.23771 0.75676,-0.75676 0.80227,-1.13061 0.2372,-1.93735 -0.25525,-0.36441 -0.7466,-0.57127 -1.22164,-0.5886 z m 9.43766,0.90537 c -0.27231,0.0208 -0.55903,0.23941 -0.61544,0.63769 -0.0727,0.51296 0.0162,0.60187 0.52916,0.52917 0.41101,-0.0582 0.61648,-0.26372 0.61648,-0.6165 0,-0.394 -0.25789,-0.57111 -0.5302,-0.55036 z m -20.76823,0.70539 c 0.15164,-9.5e-4 0.34584,0.0113 0.59325,0.032 0.80314,0.0673 1.14705,0.22345 1.20976,0.5488 0.0725,0.3764 -0.12087,0.45424 -1.12242,0.45424 -1.04804,0 -1.21028,-0.073 -1.21028,-0.54829 0,-0.36286 0.0748,-0.48396 0.52969,-0.48679 z"
       style="fill:#f2f2f2;stroke-width:0.264583"
       id="path26" />
    <path
       id="path126"
       d="m 190.46285,174.21285 c -0.20944,-0.68959 -0.67669,-2.82577 -0.67669,-3.09373 0,-0.19116 2.89546,-0.27971 9.14666,-0.27971 h 9.14665 l -1.07472,-1.94692 c -0.5911,-1.07081 -2.14725,-3.83756 -3.45812,-6.14833 -1.31086,-2.31078 -2.38339,-4.33649 -2.38339,-4.50158 0,-0.16509 1.54835,-3.02404 3.44078,-6.35323 l 3.44078,-6.05306 -8.60404,-0.0698 -8.60404,-0.0698 0.0953,-1.78231 0.0953,-1.78232 11.69262,-0.0689 11.69261,-0.0689 -0.70589,1.25953 c -2.32592,4.1502 -3.51133,6.24222 -5.88543,10.38667 l -2.65179,4.62923 0.48434,0.79473 c 0.26639,0.4371 0.71895,1.21145 1.0057,1.72077 0.28675,0.50933 1.16989,2.05714 1.96253,3.43959 0.79264,1.38244 2.14069,3.76369 2.99568,5.29166 0.85499,1.52797 1.82381,3.18497 2.15295,3.68222 0.32913,0.49726 0.53713,1.00327 0.46222,1.12448 -0.0749,0.12121 -5.4312,0.22039 -11.90285,0.22039 -9.18336,0 -11.7887,-0.0726 -11.8671,-0.33073 z"
       style="fill:#f2f2f2;stroke-width:0.264583" />
    <path
       id="path124"
       d="m -4.9834333,173.38872 c -0.082,-0.082 0.41231,-1.12507 1.09855,-2.31785 0.68625,-1.19278 1.54817,-2.70447 1.9153898,-3.35932 0.36722,-0.65484 1.85685001,-3.28358 3.31028,-5.84164 l 2.64261,-4.65103 -3.52321999,-6.19689 c -1.93776001,-3.40829 -3.97257981,-6.96376 -4.52181981,-7.90104 -0.54923,-0.93727 -1.03829,-1.80048 -1.0868,-1.91823 -0.0485,-0.11774 5.20381981,-0.21408 11.6718498,-0.21408 H 18.283447 l 0.16826,1.22755 c 0.0925,0.67516 0.16825,1.50699 0.16825,1.84852 v 0.62096 l -8.7324405,0.0697 -8.73245,0.0697 3.45479,6.07771 c 2.35241,4.13838 3.41118,6.24903 3.31812,6.61459 -0.0752,0.29527 -1.63393,3.15624 -3.46393,6.3577 l -3.32726,5.82083 8.8738805,0.0697 c 4.88063,0.0383 8.86623,0.15738 8.85689,0.26459 -0.009,0.1072 -0.16757,0.90929 -0.3516,1.78242 l -0.33461,1.5875 -11.5078105,0.0689 c -6.32928999,0.0379 -11.5749298,0.002 -11.6569698,-0.0803 z"
       style="fill:#f2f2f2;stroke-width:0.264583" />
    <path
       id="path122"
       d="m 160.81508,137.68095 c -0.14663,-0.1819 -0.75598,-1.30927 -1.35411,-2.50527 -2.30497,-4.60897 -5.70979,-9.88219 -9.27323,-14.36191 -2.16893,-2.72664 -9.02965,-9.68572 -18.74632,-19.01507 -5.20422,-4.049628 -18.2059,-19.800518 -5.48181,-13.446198 2.14423,1.12334 4.54986,3.57214 6.02708,6.13522 1.41633,2.45743 2.8787,4.03931 5.03503,5.44653 2.32332,1.516188 4.36972,2.088928 8.43227,2.359998 3.83406,0.25583 4.66307,0.44289 6.77477,1.52867 3.63292,1.86793 6.3073,5.18934 7.35899,9.13939 0.2005,0.75304 0.36595,2.40317 0.36768,3.66696 0.004,2.9691 0.58605,5.73468 1.65967,7.88665 1.0838,2.17236 3.69754,4.83446 6.11105,6.22411 0.99795,0.5746 2.43812,1.64396 3.20036,2.37635 1.3164,1.26485 3.04715,3.85293 3.05249,4.56456 0.002,0.25561 -1.46256,0.33073 -6.44741,0.33073 -4.84134,0 -6.51639,-0.0825 -6.71651,-0.33073 z"
       style="fill:#e6e6e6;stroke-width:0.264583" />
    <path
       id="path120"
       d="m 34.992607,137.38957 c 0,-0.79919 1.72902,-3.56934 3.13487,-5.02252 0.82244,-0.85012 2.44,-2.09933 3.59459,-2.776 5.56678,-3.26254 7.6845,-6.88024 8.07952,-13.80226 0.1535,-2.68979 0.34987,-3.95348 0.79516,-5.11709 1.62773,-4.25354 5.46788,-7.73701 9.82884,-8.91594 0.6367,-0.17212 2.82452,-0.40235 4.86181,-0.5116 3.91896,-0.21017 5.23885,-0.55138 7.69035,-1.988048 1.76349,-1.03348 4.19229,-3.60427 5.19535,-5.49908 2.04131,-3.85611 6.17002,-6.76535 10.496,-7.39587 5.18315,-1.41804 -0.22328,4.68099 -1.11418,5.87138 -2.08191,2.75288 -7.46211,8.278928 -13.40398,13.767328 -3.82525,3.53332 -9.87085,9.50049 -11.65997,11.50871 -4.29065,4.81608 -8.8878,11.61323 -11.85523,17.52864 l -1.36045,2.71198 h -7.14134 c -5.84276,0 -7.14134,-0.0654 -7.14134,-0.35963 z"
       style="fill:#e6e6e6;stroke-width:0.264583" />
    <path
       id="path34"
       d="m 117.23061,230.54774 c -1.80662,-0.32294 -3.35899,-0.9378 -5.70501,-2.25964 -5.17539,-2.91601 -9.44939,-2.908 -15.147803,0.0284 -4.16369,2.14555 -6.90108,2.62431 -10.56509,1.84781 -4.03684,-0.8555 -7.38336,-3.31938 -9.58186,-7.05465 -1.85313,-3.14848 -2.86154,-4.29422 -5.09334,-5.78694 -2.53931,-1.69839 -3.94214,-2.10318 -8.28625,-2.39106 -5.43911,-0.36043 -8.13646,-1.49821 -11.14012,-4.69904 -2.73454,-2.91406 -3.59245,-5.2426 -3.92936,-10.66509 -0.14816,-2.38468 -0.4103,-4.30506 -0.70068,-5.13304 -1.17617,-3.35381 -3.73529,-6.30149 -7.1086,-8.18796 -3.07214,-1.71804 -5.16541,-4.20752 -6.4702,-7.69489 -0.90197,-2.41071 -1.29033,-2.24111 5.13197,-2.24111 h 5.68092 l 0.57447,1.91823 c 4.32626,14.4461 15.51608,27.13009 29.03093,32.90746 12.94919,5.53556 33.387493,6.87959 51.240043,3.36955 13.56934,-2.6679 24.3207,-9.55645 32.5295,-20.84211 3.13408,-4.30881 5.45018,-8.88096 7.18566,-14.18503 l 1.03067,-3.15 5.09323,-0.009 5.09323,-0.009 v 0.66981 c 0,1.08471 -1.01631,3.78634 -2.02597,5.3856 -1.27498,2.0195 -3.19607,3.7675 -5.57619,5.07379 -2.50185,1.3731 -3.99476,2.74363 -5.38299,4.94174 -1.65239,2.61636 -2.09717,4.18322 -2.34784,8.27073 -0.32067,5.22895 -1.54016,8.19065 -4.48584,10.8944 -3.04652,2.79631 -5.24116,3.616 -10.47596,3.91274 -2.66987,0.15134 -4.17599,0.37087 -5.39395,0.78619 -3.37536,1.15101 -6.07773,3.40454 -7.97832,6.65319 -2.08786,3.56875 -5.05426,6.0932 -8.35951,7.11409 -2.00253,0.61852 -5.03886,0.85613 -6.83574,0.53494 z"
       style="fill:#e6e6e6;stroke-width:0.264583" />
  </g>
</svg>
